{"asset":{"version":"2.0","generator":"babylon.js glTF exporter for 3dsmax 2021 v20210607.3"},"scene":0,"scenes":[{"nodes":[0]}],"nodes":[{"mesh":0,"translation":[0.0,-1.14751673,-5.015955E-08],"name":"Cylinder001"}],"meshes":[{"primitives":[{"attributes":{"POSITION":1,"NORMAL":2,"TEXCOORD_0":3},"indices":0,"material":0},{"attributes":{"POSITION":5,"NORMAL":6,"TEXCOORD_0":7},"indices":4,"material":1},{"attributes":{"POSITION":9,"NORMAL":10,"TEXCOORD_0":11},"indices":8,"material":2},{"attributes":{"POSITION":13,"NORMAL":14,"TEXCOORD_0":15},"indices":12,"material":3},{"attributes":{"POSITION":17,"NORMAL":18,"TEXCOORD_0":19},"indices":16,"material":4}],"name":"Cylinder001"}],"accessors":[{"bufferView":0,"componentType":5123,"count":5418,"type":"SCALAR","name":"accessorIndices"},{"bufferView":1,"componentType":5126,"count":5418,"max":[0.9673312,2.33892131,1.06443918],"min":[-0.967331231,-0.09678768,-0.967331231],"type":"VEC3","name":"accessorPositions"},{"bufferView":1,"byteOffset":65016,"componentType":5126,"count":5418,"type":"VEC3","name":"accessorNormals"},{"bufferView":2,"componentType":5126,"count":5418,"type":"VEC2","name":"accessorUVs"},{"bufferView":0,"byteOffset":10836,"componentType":5123,"count":10800,"type":"SCALAR","name":"accessorIndices"},{"bufferView":1,"byteOffset":130032,"componentType":5126,"count":10800,"max":[1.01214123,2.33892131,0.8765403],"min":[-1.01214123,-0.09678768,-1.01214123],"type":"VEC3","name":"accessorPositions"},{"bufferView":1,"byteOffset":259632,"componentType":5126,"count":10800,"type":"VEC3","name":"accessorNormals"},{"bufferView":2,"byteOffset":43344,"componentType":5126,"count":10800,"type":"VEC2","name":"accessorUVs"},{"bufferView":0,"byteOffset":32436,"componentType":5123,"count":1620,"type":"SCALAR","name":"accessorIndices"},{"bufferView":1,"byteOffset":389232,"componentType":5126,"count":1620,"max":[1.006612,2.3633275,1.006612],"min":[-1.006612,2.338921,-1.006612],"type":"VEC3","name":"accessorPositions"},{"bufferView":1,"byteOffset":408672,"componentType":5126,"count":1620,"type":"VEC3","name":"accessorNormals"},{"bufferView":2,"byteOffset":129744,"componentType":5126,"count":1620,"type":"VEC2","name":"accessorUVs"},{"bufferView":0,"byteOffset":35676,"componentType":5123,"count":318,"type":"SCALAR","name":"accessorIndices"},{"bufferView":1,"byteOffset":428112,"componentType":5126,"count":318,"max":[0.9454922,2.3548696,0.9454922],"min":[-0.9454921,0.0617354736,-0.945492268],"type":"VEC3","name":"accessorPositions"},{"bufferView":1,"byteOffset":431928,"componentType":5126,"count":318,"type":"VEC3","name":"accessorNormals"},{"bufferView":2,"byteOffset":142704,"componentType":5126,"count":318,"type":"VEC2","name":"accessorUVs"},{"bufferView":0,"byteOffset":36312,"componentType":5123,"count":10752,"type":"SCALAR","name":"accessorIndices"},{"bufferView":1,"byteOffset":435744,"componentType":5126,"count":10752,"max":[0.157526463,2.086305,1.90955186],"min":[-0.157527536,0.194993719,1.0588758],"type":"VEC3","name":"accessorPositions"},{"bufferView":1,"byteOffset":564768,"componentType":5126,"count":10752,"type":"VEC3","name":"accessorNormals"},{"bufferView":2,"byteOffset":145248,"componentType":5126,"count":10752,"type":"VEC2","name":"accessorUVs"}],"bufferViews":[{"buffer":0,"byteLength":57816,"name":"bufferViewScalar"},{"buffer":0,"byteOffset":57816,"byteLength":693792,"byteStride":12,"name":"bufferViewFloatVec3"},{"buffer":0,"byteOffset":751608,"byteLength":231264,"byteStride":8,"name":"bufferViewFloatVec2"}],"buffers":[{"uri":"model.bin","byteLength":982872}],"materials":[{"pbrMetallicRoughness":{"metallicFactor":0.0,"roughnessFactor":0.9},"doubleSided":true,"name":"01 - Default"},{"pbrMetallicRoughness":{"baseColorTexture":{"index":0},"metallicFactor":0.0,"roughnessFactor":0.9},"doubleSided":true,"name":"02 - Default"},{"pbrMetallicRoughness":{"baseColorFactor":[0.0,1.0,0.117647067,1.0],"metallicFactor":0.0,"roughnessFactor":0.9},"doubleSided":true,"name":"03 - Default"},{"pbrMetallicRoughness":{"baseColorFactor":[0.2784314,0.0,0.9921569,1.0],"metallicFactor":0.0,"roughnessFactor":0.9},"doubleSided":true,"name":"04 - Default"},{"pbrMetallicRoughness":{"baseColorFactor":[0.9725491,0.776470661,0.0,1.0],"metallicFactor":0.0,"roughnessFactor":0.9},"doubleSided":true,"name":"05 - Default"}],"textures":[{"sampler":0,"source":0,"name":"texture.jpg"}],"images":[{"uri":"./texture.jpg"}],"samplers":[{"magFilter":9729,"minFilter":9987}]}